<svg width="274" height="176" viewBox="0 0 274 176" fill="none" xmlns="http://www.w3.org/2000/svg">
<path d="M105.79 29.1406C105.624 29.25 105.441 29.3073 105.254 29.3073C104.962 29.3073 104.676 29.1667 104.488 28.9115C104.197 28.4844 104.295 27.9115 104.712 27.6146C112.473 22.1563 118.176 19.1302 127.837 17.7969C128.342 17.724 128.811 18.0833 128.889 18.5938C128.962 19.099 128.603 19.5729 128.092 19.6458C118.822 20.9271 113.301 23.8542 105.79 29.1406ZM127.962 31.0885C128.473 31.1979 128.962 30.875 129.072 30.3646C129.176 29.8698 128.858 29.3698 128.353 29.2708C120.655 27.6458 113.993 28.1406 106.087 30.9115C105.598 31.0781 105.348 31.6146 105.514 32.099C105.655 32.4896 106.014 32.7292 106.389 32.7292C106.493 32.7292 106.592 32.7083 106.697 32.6719C114.264 30.0156 120.618 29.5469 127.962 31.0885ZM128.905 40.8854C123.426 36.75 116.243 34.526 107.556 34.2604C107.082 34.2344 106.613 34.6458 106.592 35.1667C106.577 35.6823 106.983 36.1042 107.499 36.125C115.795 36.375 122.624 38.4792 127.79 42.3698C127.957 42.5 128.16 42.5573 128.353 42.5573C128.639 42.5573 128.915 42.4271 129.098 42.1875C129.405 41.7813 129.322 41.1979 128.905 40.8854ZM46.0923 18.3333C45.41 18.2031 44.7069 18.0833 43.9882 17.9635C43.6392 17.9115 43.285 17.8542 42.9153 17.7969C42.41 17.724 41.9413 18.0833 41.8632 18.5938C41.7903 19.099 42.1496 19.5729 42.66 19.6458C42.7225 19.6563 42.7903 19.6615 42.8528 19.6719C43.535 19.7656 44.1913 19.875 44.8371 19.9948C52.8371 21.4167 58.0611 24.276 64.9621 29.1406C65.1288 29.25 65.3111 29.3073 65.4986 29.3073C65.7903 29.3073 66.0767 29.1667 66.2642 28.9115C66.5559 28.4844 66.4569 27.9115 66.0403 27.6094C59.1653 22.7813 53.8996 19.8646 46.0923 18.3333ZM64.6757 30.9115C56.7694 28.1406 50.1028 27.6458 42.41 29.2708C41.91 29.3698 41.5871 29.8698 41.6913 30.3646C41.8007 30.8646 42.2798 31.1979 42.7955 31.0885C50.1444 29.5469 56.4986 30.0156 64.0663 32.6667C64.1653 32.7031 64.2694 32.7188 64.3684 32.7188C64.759 32.7188 65.1184 32.4792 65.2486 32.0938C65.4153 31.6146 65.1653 31.0781 64.6757 30.9115ZM63.1965 34.2708C54.509 34.5365 47.3267 36.7604 41.8475 40.8958C41.4413 41.2083 41.358 41.7917 41.66 42.1979C41.8475 42.4375 42.1236 42.5677 42.41 42.5677C42.6028 42.5677 42.7955 42.5 42.9725 42.3802C48.1392 38.4844 54.9673 36.3854 63.2642 36.1354C63.7798 36.1146 64.1757 35.6927 64.1653 35.1719C64.1496 34.6563 63.6861 34.2448 63.1965 34.2708Z" fill="white"/>
<path d="M42.8528 19.6823C43.535 19.776 44.1913 19.8854 44.8371 20.0052C43.3163 22.3594 42.2798 25.3385 41.8475 28.7812C41.7903 29.25 41.384 29.5937 40.9257 29.5937C40.8892 29.5937 40.8528 29.5937 40.8059 29.5833C40.2955 29.5156 39.9361 29.0573 40.0038 28.5469C40.4257 25.1458 41.4153 22.1562 42.8528 19.6823ZM52.5403 12.401C49.0715 13.1302 46.1548 15.0781 43.9778 17.9739C44.6965 18.0833 45.3996 18.2031 46.0819 18.3437C47.91 16.2239 50.2225 14.7917 52.9205 14.2292C53.4153 14.125 53.7382 13.6302 53.6392 13.1302C53.5403 12.6146 53.0507 12.2917 52.5403 12.401ZM102.249 76.8542C101.879 76.4948 101.29 76.5052 100.931 76.8698C96.3319 81.6042 90.6236 86.3229 87.9101 87.6042C87.4465 87.8229 87.2434 88.3802 87.4673 88.8385C87.6236 89.1719 87.9569 89.375 88.3059 89.375C88.4361 89.375 88.5715 89.3489 88.7017 89.2812C91.6288 87.901 97.4569 83.1198 102.259 78.1614C102.629 77.8021 102.618 77.2135 102.249 76.8542Z" fill="#F4B158"/>
<mask id="mask0_585_3229" style="mask-type:luminance" maskUnits="userSpaceOnUse" x="53" y="0" width="180" height="94">
<path d="M53.6392 0H232.306V94H53.6392V0Z" fill="white"/>
</mask>
<g mask="url(#mask0_585_3229)">
<path d="M85.3788 23.0521L75.4413 12.1823H95.3111L85.3788 23.0521ZM103.639 42.8594C103.191 42.6094 102.629 42.7656 102.368 43.2136C100.207 47.0208 97.1444 48.7656 93.983 47.9792C90.5299 47.1302 86.9413 43.0833 86.7278 36.9636L84.8736 36.8698C84.1549 42.0208 81.0246 46.4479 77.259 47.6511C74.233 48.6094 71.1236 47.5 68.2538 44.4375C67.9049 44.0625 67.3163 44.0417 66.9361 44.3906C66.5559 44.7448 66.5403 45.3333 66.8996 45.7136C70.2486 49.2813 74.1236 50.5938 77.8215 49.4219C81.1809 48.349 84.0246 45.3333 85.5924 41.4115C86.8944 45.6667 89.8371 48.8854 93.5403 49.7969C94.2017 49.9636 94.8684 50.0417 95.5142 50.0417C98.8059 50.0417 101.816 47.9636 103.993 44.1354C104.243 43.6823 104.082 43.1198 103.639 42.8594ZM110.394 0.0104261C107.415 0.145843 104.316 2.48959 102.514 5.97918C102.275 6.4323 102.462 6.9948 102.91 7.23438C103.051 7.3073 103.197 7.33334 103.337 7.33334C103.681 7.33334 104.004 7.15105 104.165 6.83855C105.655 3.97918 108.191 1.97397 110.488 1.86459C112.249 1.78126 113.764 2.72918 115.03 4.68751C115.306 5.1198 115.879 5.23959 116.311 4.96355C116.743 4.68751 116.863 4.10418 116.587 3.6823C114.53 0.500009 112.082 -0.0624899 110.394 0.0104261ZM67.4153 7.33334C67.5611 7.33334 67.7017 7.29688 67.8424 7.23438C68.3007 6.9948 68.4778 6.4323 68.2382 5.97918C66.4257 2.48959 63.3371 0.145843 60.358 0.0104261C58.6757 -0.0729072 56.2226 0.500009 54.1653 3.6823C53.8892 4.11459 54.009 4.68751 54.4413 4.96355C54.8736 5.23959 55.4465 5.1198 55.7226 4.68751C56.9882 2.72918 58.5299 1.77084 60.2642 1.86459C62.5611 1.97397 65.0976 3.96876 66.5871 6.83855C66.759 7.15105 67.0819 7.33334 67.4153 7.33334ZM213.697 93.8229C206.681 93.2865 196.566 88.6667 184.415 72.0365L183.681 71.0313L182.92 72.0261C182.754 72.25 182.587 72.4636 182.415 72.6719C182.139 72.3021 181.863 71.9531 181.592 71.5781C169.9 86.9375 158.691 92.9115 149.863 92.7813C147.764 92.4844 145.707 91.7656 143.743 90.5677C133.983 84.6146 131.764 69.2969 138.613 54.9375C149.295 32.5156 179.212 12.4948 183.634 9.62501C184.197 10.0417 185.009 10.6042 186.087 11.3594C192.436 15.7604 206.238 25.3542 217.285 38.0261C221.295 42.8229 224.879 48.0261 227.499 53.5261C236.967 73.4323 229.087 93.3802 213.697 93.8229ZM149.092 64.1563C149.092 63.3073 148.41 62.625 147.561 62.625C146.712 62.625 146.025 63.3073 146.025 64.1563C146.025 65.0052 146.707 65.6979 147.561 65.6979C148.405 65.6875 149.092 65.0052 149.092 64.1563ZM155.572 72.875C155.572 72.0261 154.889 71.3438 154.04 71.3438C153.191 71.3438 152.499 72.0261 152.499 72.875C152.499 73.724 153.181 74.4167 154.04 74.4167C154.889 74.4167 155.572 73.724 155.572 72.875ZM161.165 64.1563C161.165 63.3073 160.483 62.625 159.634 62.625C158.785 62.625 158.103 63.3073 158.103 64.1563C158.103 65.0052 158.785 65.6979 159.634 65.6979C160.483 65.6875 161.165 65.0052 161.165 64.1563ZM172.254 22.4323L173.712 21.2708C174.108 20.9479 174.176 20.3646 173.853 19.9583C173.53 19.5625 172.947 19.4948 172.54 19.8177L171.092 20.9844C166.691 24.5052 161.217 28.8906 157.04 34.1406C156.717 34.5469 156.79 35.1302 157.186 35.4531C157.363 35.5886 157.566 35.6563 157.769 35.6563C158.045 35.6563 158.311 35.5365 158.499 35.3021C162.54 30.2083 167.926 25.8906 172.254 22.4323ZM191.54 53.0677H171.676L181.613 63.9375L191.54 53.0677ZM214.118 64.1563C214.118 65.0052 214.801 65.6979 215.66 65.6979C216.509 65.6979 217.191 65.0156 217.191 64.1563C217.191 63.3073 216.509 62.625 215.66 62.625C214.811 62.6146 214.118 63.3073 214.118 64.1563ZM205.124 64.1563C205.124 63.3073 204.441 62.625 203.582 62.625C202.733 62.625 202.04 63.3073 202.04 64.1563C202.04 65.0052 202.723 65.6979 203.582 65.6979C204.431 65.6875 205.124 65.0052 205.124 64.1563ZM211.608 72.875C211.608 72.0261 210.926 71.3438 210.066 71.3438C209.217 71.3438 208.53 72.0261 208.53 72.875C208.53 73.724 209.212 74.4167 210.066 74.4167C210.915 74.4167 211.608 73.724 211.608 72.875ZM226.889 80.3333C226.973 79.8229 226.629 79.3438 226.124 79.2604C225.618 79.1771 225.134 79.5208 225.051 80.0261C224.129 85.5469 220.337 88.6667 213.78 89.2917C213.269 89.3386 212.889 89.7969 212.936 90.3073C212.983 90.7865 213.389 91.1458 213.863 91.1458C213.889 91.1458 213.915 91.1458 213.952 91.1458C221.353 90.4375 225.827 86.6979 226.889 80.3333ZM183.587 74.2031C184.499 75.375 185.415 76.5052 186.327 77.5625C185.441 76.4844 184.556 75.3386 183.65 74.1302C183.624 74.1615 183.603 74.1875 183.587 74.2031ZM136.926 54.1354C147.738 31.4479 177.634 11.3021 182.488 8.14063C182.103 7.85938 181.795 7.63022 181.603 7.47397C181.603 7.47397 147.436 28.8802 135.697 53.5261C129.249 67.0729 130.915 80.1927 137.504 87.3073C131.582 79.3333 131.092 66.3698 136.926 54.1354ZM151.514 13.7865C151.54 13.7865 151.577 13.7865 151.603 13.7865C152.113 13.7292 152.488 13.2761 152.436 12.7708C152.129 9.75522 153.082 7.79689 155.103 7.26043C157.832 6.54168 162.124 8.50001 163.785 12.2188C163.999 12.6875 164.54 12.9011 165.014 12.6875C165.483 12.474 165.697 11.9323 165.483 11.4583C163.598 7.23438 158.525 4.43751 154.624 5.47397C153.217 5.83855 150.019 7.31772 150.582 12.9636C150.634 13.4323 151.04 13.7865 151.514 13.7865ZM198.212 12.6771C198.681 12.8906 199.233 12.6771 199.436 12.2083C201.092 8.50001 205.389 6.53126 208.113 7.25001C210.134 7.78647 211.072 9.7448 210.78 12.7604C210.723 13.2708 211.103 13.7292 211.608 13.7761C211.639 13.7761 211.676 13.7761 211.702 13.7761C212.17 13.7761 212.577 13.4167 212.624 12.9375C213.186 7.29168 209.993 5.81251 208.592 5.44272C204.691 4.41147 199.624 7.20834 197.738 11.4323C197.53 11.9219 197.738 12.474 198.212 12.6771Z" fill="#6B3B1F"/>
</g>
<mask id="mask1_585_3229" style="mask-type:luminance" maskUnits="userSpaceOnUse" x="34" y="6" width="201" height="90">
<path d="M34.9725 6H234.973V96H34.9725V6Z" fill="white"/>
</mask>
<g mask="url(#mask1_585_3229)">
<path d="M87.4829 29.2031C87.2069 28.8333 86.9309 28.4844 86.6548 28.125C98.4829 13.2031 109.749 7.84375 118.462 8.59896C115.702 8.66667 112.806 9.29167 109.821 10.4896C102.342 13.4792 94.8319 19.776 87.4829 29.2031ZM46.8944 9.98438C48.4881 9.03125 51.6392 7.59375 56.0402 7.60417C38.8684 5.61979 29.4725 26.7292 39.5038 47.7865C42.2225 53.5 45.9829 58.8906 50.1809 63.8333C46.4881 59.2865 43.2017 54.3854 40.7277 49.1979C33.3371 33.6771 36.0454 16.4635 46.8944 9.98438ZM147.556 62.6146C146.707 62.6146 146.014 63.2969 146.014 64.1458C146.014 64.9948 146.696 65.6875 147.556 65.6875C148.405 65.6875 149.087 65.0052 149.087 64.1458C149.092 63.3073 148.405 62.6146 147.556 62.6146ZM203.582 62.6146C202.733 62.6146 202.04 63.2969 202.04 64.1458C202.04 64.9948 202.723 65.6875 203.582 65.6875C204.431 65.6875 205.124 65.0052 205.124 64.1458C205.124 63.3073 204.431 62.6146 203.582 62.6146ZM215.66 62.6146C214.811 62.6146 214.118 63.2969 214.118 64.1458C214.118 64.9948 214.801 65.6875 215.66 65.6875C216.509 65.6875 217.191 65.0052 217.191 64.1458C217.191 63.3073 216.509 62.6146 215.66 62.6146ZM210.066 71.3333C209.217 71.3333 208.53 72.0208 208.53 72.8698C208.53 73.7188 209.212 74.4063 210.066 74.4063C210.915 74.4063 211.608 73.724 211.608 72.8698C211.608 72.026 210.915 71.3333 210.066 71.3333ZM224.233 93.3542C222.634 94.3021 219.499 95.7396 215.113 95.7396C208.212 95.7396 198.228 92.1823 186.316 77.5625C185.431 76.4844 184.545 75.3385 183.639 74.1302C183.624 74.1615 183.603 74.1771 183.587 74.2031C176.249 83.5885 168.759 89.8646 161.301 92.8438C154.426 95.5938 148.025 95.3542 142.764 92.1406C140.691 90.8802 138.936 89.2344 137.499 87.2917C131.582 79.3281 131.092 66.3646 136.926 54.125C147.738 31.4375 177.634 11.2917 182.488 8.13021C182.894 7.85938 183.155 7.70313 183.181 7.6875L183.754 7.32812L184.269 7.76042C184.691 8.11979 185.717 8.82813 187.139 9.81771C196.191 16.099 220.228 32.7865 230.394 54.125C237.785 69.6563 235.082 86.8854 224.233 93.3542ZM228.717 54.9375C225.827 48.875 221.78 43.1927 217.275 38.026C206.228 25.3542 192.426 15.7708 186.077 11.3594C184.999 10.6094 184.176 10.0417 183.624 9.625C179.212 12.4948 149.29 32.5156 138.603 54.9375C131.764 69.2969 133.973 84.6146 143.733 90.5677C145.707 91.7656 147.759 92.4844 149.853 92.7813C160.978 94.3646 173.446 84.224 182.405 72.6719C182.571 72.4635 182.749 72.2396 182.91 72.026L183.67 71.0313L184.405 72.0365C196.561 88.6563 206.67 93.2865 213.686 93.8229C218.374 94.1719 221.676 92.7083 223.275 91.7552C233.311 85.7656 235.702 69.599 228.717 54.9375ZM181.613 63.9375L191.551 53.0677H171.676L181.613 63.9375ZM131.295 47.7865C120.858 69.6927 92.7173 89.0313 86.5871 93.0573C86.1548 92.75 85.6392 92.3906 85.0506 91.9792C76.1079 85.776 52.3684 69.2969 42.41 48.4063C35.4256 33.7448 37.8163 17.5677 47.8423 11.5885C49.2746 10.7292 52.0819 9.46875 56.009 9.46875C62.0611 9.46875 70.8006 12.4844 81.3944 24.625C82.7121 26.2135 84.0506 27.901 85.3892 29.7396C85.4152 29.7031 85.4465 29.6771 85.4621 29.6354C85.8788 30.1823 86.285 30.7344 86.7017 31.2969L87.4361 32.3021L88.1965 31.3073C98.8736 17.3021 114.759 5.07292 127.394 12.7708C128.603 13.5104 129.691 14.3854 130.66 15.3802C136.249 22.7448 137.348 35.0833 131.295 47.7865ZM64.16 35.1667C64.1392 34.6458 63.6809 34.2344 63.1965 34.2604C54.509 34.526 47.3267 36.75 41.8475 40.8854C41.4413 41.1979 41.3579 41.7813 41.66 42.1875C41.8475 42.4271 42.1236 42.5573 42.41 42.5573C42.6027 42.5573 42.7954 42.4896 42.9725 42.3698C48.1392 38.4792 54.9673 36.375 63.2642 36.125C63.7694 36.1146 64.1756 35.6823 64.16 35.1667ZM64.6756 30.9115C56.7694 28.1406 50.1027 27.6458 42.41 29.2708C41.91 29.3698 41.5871 29.8698 41.6913 30.3646C41.8006 30.8646 42.2798 31.1979 42.7954 31.0885C50.1444 29.5469 56.4986 30.0156 64.0663 32.6667C64.1652 32.7031 64.2694 32.7188 64.3684 32.7188C64.759 32.7188 65.1184 32.4792 65.2486 32.0938C65.4152 31.6146 65.1652 31.0781 64.6756 30.9115ZM66.0402 27.6146C59.1652 22.7813 53.9048 19.8594 46.0923 18.3333C47.9204 16.2135 50.2329 14.7813 52.9309 14.2188C53.4256 14.1198 53.7486 13.6198 53.6496 13.1198C53.5402 12.625 53.0506 12.2917 52.5506 12.401C49.0819 13.1302 46.1652 15.0781 43.9881 17.974C43.6392 17.9167 43.285 17.8646 42.9152 17.8073C42.41 17.7344 41.9413 18.0937 41.8631 18.6042C41.7902 19.1094 42.1496 19.5781 42.66 19.6563C42.7225 19.6615 42.7902 19.6719 42.8527 19.6823C41.4152 22.1563 40.4256 25.1458 40.0038 28.5469C39.9361 29.0573 40.2954 29.526 40.8111 29.5938C40.8527 29.599 40.8892 29.599 40.9309 29.599C41.3944 29.599 41.8006 29.2604 41.8579 28.7865C42.2902 25.349 43.3215 22.375 44.8475 20.0156C52.8475 21.4323 58.0663 24.2969 64.9725 29.1563C65.134 29.2708 65.3215 29.3229 65.5038 29.3229C65.8006 29.3229 66.0871 29.1875 66.2694 28.9271C66.5559 28.4948 66.4569 27.9115 66.0402 27.6146ZM102.249 76.8542C101.879 76.4948 101.29 76.5052 100.931 76.8698C96.3319 81.6042 90.6236 86.3229 87.91 87.6042C87.4465 87.8229 87.2434 88.3802 87.4673 88.8385C87.6236 89.1719 87.9569 89.375 88.3059 89.375C88.4361 89.375 88.5715 89.349 88.7017 89.2813C91.6288 87.901 97.4569 83.1198 102.259 78.1615C102.629 77.8021 102.618 77.2135 102.249 76.8542ZM103.639 42.8594C103.191 42.6094 102.629 42.7656 102.368 43.2135C100.207 47.0208 97.1444 48.7656 93.9829 47.9792C90.5298 47.1302 86.9413 43.0833 86.7277 36.9635L84.8736 36.8698C84.1548 42.0208 81.0246 46.4479 77.259 47.651C74.2329 48.6094 71.1236 47.5 68.2538 44.4375C67.9048 44.0625 67.3163 44.0417 66.9361 44.3906C66.5559 44.7448 66.5402 45.3333 66.8996 45.7135C70.2486 49.2813 74.1236 50.5938 77.8215 49.4219C81.1809 48.349 84.0246 45.3333 85.5923 41.4115C86.8944 45.6667 89.8371 48.8854 93.5402 49.7969C94.2017 49.9635 94.8684 50.0417 95.5142 50.0417C98.8059 50.0417 101.816 47.9635 103.993 44.1354C104.243 43.6823 104.082 43.1198 103.639 42.8594ZM105.254 29.3125C105.441 29.3125 105.624 29.2604 105.79 29.151C113.301 23.8542 118.821 20.9375 128.092 19.6563C128.603 19.5781 128.962 19.1198 128.889 18.6042C128.811 18.0833 128.353 17.7344 127.837 17.8073C118.176 19.1354 112.473 22.1563 104.712 27.625C104.285 27.9219 104.196 28.5052 104.488 28.9167C104.676 29.1771 104.962 29.3125 105.254 29.3125ZM106.389 32.7188C106.493 32.7188 106.592 32.7031 106.696 32.6667C114.264 30.0156 120.618 29.5469 127.962 31.0885C128.473 31.1979 128.962 30.875 129.071 30.3646C129.176 29.8698 128.858 29.3698 128.353 29.2708C120.655 27.6458 113.993 28.1406 106.087 30.9115C105.598 31.0781 105.348 31.6146 105.514 32.099C105.644 32.4792 106.004 32.7188 106.389 32.7188ZM128.905 40.8854C123.426 36.75 116.243 34.526 107.556 34.2604C107.082 34.2344 106.613 34.6458 106.592 35.1667C106.577 35.6823 106.983 36.1042 107.499 36.125C115.795 36.375 122.624 38.4792 127.79 42.3698C127.957 42.5 128.16 42.5573 128.353 42.5573C128.639 42.5573 128.915 42.4271 129.098 42.1875C129.405 41.7813 129.321 41.1979 128.905 40.8854ZM154.04 71.3333C153.191 71.3333 152.499 72.0208 152.499 72.8698C152.499 73.7188 153.181 74.4063 154.04 74.4063C154.889 74.4063 155.571 73.724 155.571 72.8698C155.571 72.026 154.889 71.3333 154.04 71.3333ZM159.634 62.6146C158.785 62.6146 158.103 63.2969 158.103 64.1458C158.103 64.9948 158.785 65.6875 159.634 65.6875C160.483 65.6875 161.165 65.0052 161.165 64.1458C161.165 63.3073 160.483 62.6146 159.634 62.6146Z" fill="#FB8A2C"/>
</g>
<mask id="mask2_585_3229" style="mask-type:luminance" maskUnits="userSpaceOnUse" x="36" y="7" width="191" height="89">
<path d="M36.3058 7.33325H226.973V95.9999H36.3058V7.33325Z" fill="white"/>
</mask>
<g mask="url(#mask2_585_3229)">
<path d="M128.363 11.1822C125.389 9.37489 122.051 8.5051 118.462 8.58844C115.702 8.65614 112.806 9.28114 109.821 10.4843C102.342 13.4739 94.8319 19.7655 87.483 29.1926C87.2069 28.828 86.9309 28.4739 86.6548 28.1145C73.9465 11.5728 63.2902 7.61448 56.0298 7.60406C51.6392 7.59364 48.483 9.03114 46.884 9.98427C36.0455 16.4634 33.3371 33.677 40.7277 49.1978C43.1965 54.3749 46.4882 59.2864 50.1809 63.8332C61.6861 78.0259 77.134 88.7551 83.9882 93.5103C85.41 94.4947 86.4309 95.2082 86.8684 95.5676L87.384 95.9999L87.9569 95.6405C88.2955 95.427 122.483 73.7968 134.212 49.1978C141.457 33.9843 138.946 17.6405 128.363 11.1822ZM132.525 48.4061C121.837 70.828 91.9205 90.8489 87.5038 93.7187C87.2538 93.5364 86.9413 93.3124 86.5871 93.0676C86.1548 92.7603 85.6392 92.4009 85.0507 91.9843C76.108 85.7759 52.3684 69.2968 42.41 48.4061C35.4257 33.7447 37.8163 17.5676 47.8423 11.5884C49.2746 10.7291 52.0819 9.46864 56.009 9.46864C62.0611 9.46864 70.8007 12.4843 81.3944 24.6249C82.7225 26.1509 84.0819 27.8124 85.4725 29.6353C85.8892 30.1822 86.2955 30.7343 86.7121 31.2968L87.4465 32.302L88.2069 31.3072C98.8736 17.302 114.759 5.07281 127.394 12.7707C128.603 13.5103 129.691 14.3853 130.66 15.3801C137.561 22.4947 138.519 35.8176 132.525 48.4061ZM226.889 80.3332C225.827 86.6874 221.353 90.4374 213.952 91.1457C213.926 91.1457 213.889 91.1457 213.863 91.1457C213.389 91.1457 212.983 90.7864 212.936 90.3072C212.889 89.7968 213.259 89.3384 213.78 89.2916C220.337 88.6666 224.129 85.5468 225.051 80.0259C225.134 79.5207 225.618 79.177 226.124 79.2603C226.629 79.3436 226.973 79.8228 226.889 80.3332ZM173.853 19.9582C174.176 20.3541 174.108 20.9478 173.712 21.2707L172.254 22.4322C167.926 25.8905 162.551 30.203 158.499 35.2916C158.311 35.5259 158.045 35.6457 157.769 35.6457C157.566 35.6457 157.363 35.578 157.186 35.4426C156.78 35.1197 156.717 34.5364 157.04 34.1301C161.212 28.8801 166.691 24.4999 171.092 20.9739L172.54 19.8124C172.936 19.4947 173.53 19.5624 173.853 19.9582Z" fill="#8E5238"/>
</g>
<path d="M7.5625 116.773C9.35417 116.773 10.8594 117.267 12.0833 118.252C13.276 119.241 14.1771 120.476 14.7917 121.96C15.3854 123.476 15.6875 125.085 15.6875 126.794C15.6875 128.544 15.3854 130.163 14.7917 131.648C14.1771 133.148 13.276 134.398 12.0833 135.398C10.8594 136.387 9.35417 136.877 7.5625 136.877H5.54167C5.21875 136.877 4.95833 136.981 4.75 137.189C4.51042 137.429 4.39583 137.7 4.39583 138.002V144.252C4.39583 144.559 4.29167 144.814 4.08333 145.023C3.84375 145.262 3.57292 145.377 3.27083 145.377H1.125C0.802083 145.377 0.546875 145.262 0.354167 145.023C0.114584 144.814 0 144.559 0 144.252V117.898C0 117.596 0.114584 117.325 0.354167 117.085C0.546875 116.877 0.802083 116.773 1.125 116.773H7.5625ZM7.64583 132.46C8.44792 132.46 9.125 132.179 9.66667 131.606C10.2083 131.054 10.625 130.366 10.9167 129.544C11.2083 128.71 11.3542 127.794 11.3542 126.794C11.3542 125.835 11.2187 124.939 10.9583 124.106C10.6667 123.273 10.25 122.575 9.70833 122.002C9.16667 121.46 8.47917 121.189 7.64583 121.189H5.54167C5.21875 121.189 4.95833 121.294 4.75 121.502C4.51042 121.741 4.39583 122.012 4.39583 122.314V131.335C4.39583 131.642 4.51042 131.898 4.75 132.106C4.95833 132.346 5.21875 132.46 5.54167 132.46H7.64583Z" fill="#FB8A2C"/>
<path d="M35.4165 145.377C34.9008 145.325 34.5675 145.038 34.4165 144.523L33.4998 141.127C33.3175 140.559 32.9425 140.273 32.3748 140.273H26.1248C25.5519 140.273 25.1769 140.559 24.9998 141.127C24.8175 141.825 24.6665 142.46 24.5415 143.044C24.3748 143.616 24.229 144.106 24.104 144.523C23.9217 145.096 23.5623 145.377 23.0206 145.377H20.7915C20.4269 145.377 20.13 145.226 19.8956 144.919C19.6561 144.627 19.5883 144.304 19.6873 143.939L26.7498 117.627C26.8019 117.377 26.9373 117.169 27.1456 117.002C27.354 116.851 27.5883 116.773 27.854 116.773H30.6665C30.9165 116.773 31.1456 116.851 31.354 117.002C31.5623 117.169 31.6925 117.377 31.7498 117.627C32.6665 121.075 33.4581 124.017 34.1248 126.46C34.7758 128.908 35.3227 130.96 35.7706 132.627C36.2133 134.283 36.5831 135.616 36.8748 136.627C37.1248 137.642 37.3383 138.455 37.5206 139.064C37.6873 139.689 37.8175 140.158 37.9165 140.46C37.9998 140.794 38.0727 141.106 38.1456 141.398C38.229 141.689 38.3175 142.017 38.4165 142.377C38.4998 142.741 38.63 143.262 38.8123 143.939C38.8956 144.273 38.8592 144.575 38.7081 144.835C38.5102 145.116 38.2602 145.294 37.9581 145.377C37.9008 145.502 37.8748 145.648 37.8748 145.814C37.8748 146.023 37.9269 146.2 38.0415 146.356C38.1352 146.507 38.3331 146.7 38.6248 146.939C38.8852 147.148 39.0206 147.398 39.0206 147.689C39.0206 147.991 38.9165 148.252 38.7081 148.46L38.4998 148.585C38.3436 148.736 38.1665 148.814 37.9581 148.814C37.7498 148.814 37.5415 148.757 37.3331 148.648C36.8175 148.398 36.4269 148.085 36.1665 147.71C35.8748 147.346 35.6769 146.986 35.5831 146.627C35.4425 146.21 35.3852 145.794 35.4165 145.377ZM26.7915 134.419C26.6925 134.783 26.7602 135.106 26.9998 135.398C27.2342 135.705 27.5311 135.856 27.8956 135.856H30.6248C30.9842 135.856 31.2811 135.705 31.5206 135.398C31.755 135.106 31.8175 134.783 31.7081 134.419L30.354 129.419C30.2706 129.127 30.1248 128.908 29.9165 128.752C29.7081 128.627 29.4842 128.564 29.2498 128.564C29.0102 128.564 28.7915 128.627 28.5831 128.752C28.3748 128.908 28.2342 129.127 28.1665 129.419L26.7915 134.419Z" fill="#FB8A2C"/>
<path d="M64.0292 140.064C64.1803 140.148 64.2844 140.283 64.3417 140.46C64.3521 140.642 64.3105 140.794 64.2167 140.919V140.96C63.1178 142.419 61.7896 143.517 60.2375 144.252C58.6542 145.002 56.8834 145.377 54.925 145.377C50.9667 145.377 47.8678 143.908 45.6334 140.96C43.7428 138.392 42.8 135.101 42.8 131.085C42.8 129.085 43.0396 127.252 43.5292 125.585C43.998 123.934 44.7011 122.481 45.6334 121.231C46.7271 119.747 48.0709 118.627 49.6542 117.877C51.2219 117.142 52.9771 116.773 54.925 116.773C56.8834 116.773 58.6542 117.142 60.2375 117.877C61.7896 118.627 63.1178 119.747 64.2167 121.231C64.3105 121.356 64.3521 121.512 64.3417 121.689C64.2844 121.872 64.1803 122.002 64.0292 122.085L61.2584 123.71C60.9355 123.851 60.675 123.804 60.4667 123.564C60.0188 123.054 59.5553 122.637 59.0709 122.314C58.5396 122.012 58.0344 121.762 57.55 121.564C57.05 121.413 56.5761 121.309 56.1334 121.252C55.675 121.21 55.2688 121.189 54.925 121.189C54.3261 121.189 53.5969 121.283 52.7375 121.46C51.8625 121.669 51.0188 122.116 50.2167 122.794C49.3834 123.46 48.675 124.45 48.0917 125.752C47.4928 127.075 47.1959 128.851 47.1959 131.085C47.1959 133.335 47.4928 135.106 48.0917 136.398C48.675 137.705 49.3834 138.7 50.2167 139.377C51.0188 140.044 51.8625 140.471 52.7375 140.648C53.5969 140.856 54.3261 140.96 54.925 140.96C55.2688 140.96 55.675 140.939 56.1334 140.898C56.5761 140.846 57.05 140.726 57.55 140.544C58.0344 140.392 58.5396 140.158 59.0709 139.835C59.5553 139.533 60.0188 139.116 60.4667 138.585C60.675 138.325 60.9355 138.283 61.2584 138.46L64.0292 140.064Z" fill="#FB8A2C"/>
<path d="M83.3632 120.919C83.3632 121.101 83.3267 121.267 83.259 121.419L73.3423 140.502C73.285 140.575 73.285 140.679 73.3423 140.814C73.4257 140.913 73.5142 140.96 73.6132 140.96H82.2382C82.5559 140.96 82.8267 141.064 83.0507 141.273C83.259 141.512 83.3632 141.804 83.3632 142.148V144.252C83.3632 144.559 83.259 144.814 83.0507 145.023C82.8267 145.262 82.5559 145.377 82.2382 145.377H69.3632C69.0402 145.377 68.785 145.262 68.5923 145.023C68.3527 144.814 68.2382 144.559 68.2382 144.252V141.231C68.2382 141.054 68.2694 140.887 68.3423 140.731L78.259 121.648C78.3423 121.58 78.3423 121.476 78.259 121.335C78.2277 121.241 78.1392 121.189 77.9882 121.189H69.3632C69.0402 121.189 68.785 121.075 68.5923 120.835C68.3527 120.627 68.2382 120.356 68.2382 120.023V117.898C68.2382 117.596 68.3527 117.325 68.5923 117.085C68.785 116.877 69.0402 116.773 69.3632 116.773H82.2382C82.5559 116.773 82.8267 116.877 83.0507 117.085C83.259 117.325 83.3632 117.596 83.3632 117.898V120.919Z" fill="#FB8A2C"/>
<path d="M95.8611 130.398C95.7205 130.606 95.6528 130.83 95.6528 131.064C95.6528 131.314 95.7205 131.544 95.8611 131.752L104.528 143.544C104.804 143.908 104.84 144.309 104.632 144.752C104.424 145.169 104.08 145.377 103.611 145.377H101.007C100.616 145.377 100.304 145.226 100.069 144.919L92.8819 135.148C92.783 135.054 92.6944 135.002 92.6111 135.002C92.5121 135.002 92.434 135.054 92.3819 135.148L91.7153 136.002C91.684 136.033 91.6736 136.101 91.6736 136.21V144.21C91.6736 144.544 91.5694 144.814 91.3611 145.023C91.1215 145.262 90.8403 145.377 90.5069 145.377H88.4444C88.0955 145.377 87.8246 145.262 87.6319 145.023C87.3924 144.814 87.2778 144.544 87.2778 144.21V117.939C87.2778 117.606 87.3924 117.325 87.6319 117.085C87.8246 116.877 88.0955 116.773 88.4444 116.773H90.5069C90.8403 116.773 91.1215 116.877 91.3611 117.085C91.5694 117.325 91.6736 117.606 91.6736 117.939V127.669C91.6736 127.851 91.7569 127.955 91.9236 127.981C92.0746 128.023 92.184 127.981 92.2569 127.856L100.069 117.252C100.33 116.934 100.642 116.773 101.007 116.773H103.611C104.08 116.773 104.424 116.981 104.632 117.398C104.84 117.846 104.804 118.247 104.528 118.606L95.8611 130.398Z" fill="#FB8A2C"/>
<path d="M111.968 116.773C112.27 116.773 112.541 116.877 112.781 117.085C112.989 117.325 113.093 117.596 113.093 117.898V144.252C113.093 144.559 112.989 144.814 112.781 145.023C112.541 145.262 112.27 145.377 111.968 145.377H109.822C109.499 145.377 109.244 145.262 109.051 145.023C108.812 144.814 108.697 144.559 108.697 144.252V117.898C108.697 117.596 108.812 117.325 109.051 117.085C109.244 116.877 109.499 116.773 109.822 116.773H111.968Z" fill="#FB8A2C"/>
<path d="M151.379 144.439C151.322 144.731 151.191 144.955 150.983 145.106C150.743 145.288 150.488 145.377 150.212 145.377H147.629C147.337 145.377 147.087 145.288 146.879 145.106C146.655 144.955 146.514 144.731 146.462 144.439L142.837 127.356L139.191 144.439C139.15 144.731 139.025 144.955 138.816 145.106C138.608 145.288 138.358 145.377 138.066 145.377H135.462C135.171 145.377 134.921 145.288 134.712 145.106C134.504 144.955 134.368 144.731 134.316 144.439L128.754 118.21C128.671 117.825 128.743 117.491 128.983 117.21C129.191 116.919 129.488 116.773 129.879 116.773H131.983C132.275 116.773 132.525 116.851 132.733 117.002C132.941 117.184 133.066 117.419 133.108 117.71L136.441 133.273C136.452 133.439 136.551 133.523 136.733 133.523C136.926 133.523 137.046 133.439 137.087 133.273L140.379 117.71C140.421 117.419 140.556 117.184 140.796 117.002C141.004 116.851 141.254 116.773 141.546 116.773H144.108C144.4 116.773 144.66 116.851 144.9 117.002C145.108 117.184 145.238 117.419 145.296 117.71L145.608 119.106C145.65 119.429 145.712 119.741 145.796 120.044C145.879 120.392 145.967 120.809 146.066 121.294C146.176 121.794 146.337 122.512 146.546 123.439C146.723 124.413 146.983 125.679 147.316 127.231C147.65 128.788 148.077 130.804 148.608 133.273C148.608 133.439 148.712 133.523 148.921 133.523C149.072 133.523 149.176 133.439 149.233 133.273L152.546 117.71C152.598 117.419 152.733 117.184 152.941 117.002C153.15 116.851 153.389 116.773 153.671 116.773H155.796C156.181 116.773 156.488 116.919 156.712 117.21C156.921 117.491 157.004 117.814 156.962 118.189L151.379 144.439Z" fill="#FB8A2C"/>
<path d="M196.938 116.773C197.256 116.773 197.532 116.877 197.771 117.085C198.006 117.325 198.126 117.606 198.126 117.939V144.21C198.126 144.544 198.006 144.814 197.771 145.023C197.532 145.262 197.256 145.377 196.938 145.377H194.834C194.527 145.377 194.271 145.262 194.063 145.023C193.823 144.814 193.709 144.544 193.709 144.21V131.606C193.709 131.346 193.573 131.184 193.313 131.127C193.032 131.085 192.855 131.189 192.771 131.439L187.98 144.606C187.896 144.83 187.751 145.012 187.542 145.148C187.334 145.304 187.11 145.377 186.876 145.377H183.834C183.292 145.377 182.928 145.122 182.751 144.606L177.938 131.439C177.865 131.189 177.688 131.085 177.396 131.127C177.131 131.184 177.001 131.346 177.001 131.606V144.21C177.001 144.544 176.881 144.814 176.646 145.023C176.422 145.262 176.152 145.377 175.834 145.377H173.771C173.422 145.377 173.152 145.262 172.959 145.023C172.719 144.814 172.605 144.544 172.605 144.21V117.939C172.605 117.606 172.719 117.325 172.959 117.085C173.152 116.877 173.422 116.773 173.771 116.773H176.459C177.001 116.773 177.365 117.038 177.563 117.564L184.896 137.689C184.964 137.898 185.115 138.002 185.355 138.002C185.589 138.002 185.735 137.898 185.792 137.689L193.126 117.564C193.334 117.038 193.693 116.773 194.209 116.773H196.938Z" fill="#FB8A2C"/>
<path d="M217.897 145.377C217.356 145.377 216.991 145.096 216.814 144.523C216.731 144.231 216.627 143.814 216.502 143.273C216.335 142.747 216.132 142.033 215.897 141.127C215.715 140.559 215.34 140.273 214.772 140.273H208.522C207.95 140.273 207.575 140.559 207.397 141.127C207.215 141.825 207.064 142.46 206.939 143.044C206.772 143.616 206.627 144.106 206.502 144.523C206.319 145.096 205.96 145.377 205.418 145.377H203.189C202.825 145.377 202.528 145.226 202.293 144.919C202.054 144.627 201.986 144.304 202.085 143.939C202.345 142.971 202.673 141.747 203.064 140.273C203.45 138.814 203.882 137.226 204.356 135.502C204.825 133.809 205.304 132.054 205.793 130.231C206.262 128.439 206.72 126.726 207.168 125.085C207.585 123.476 207.97 122.002 208.335 120.669C208.668 119.377 208.939 118.366 209.147 117.627C209.2 117.377 209.335 117.169 209.543 117.002C209.752 116.851 209.986 116.773 210.252 116.773H213.064C213.314 116.773 213.543 116.851 213.752 117.002C213.96 117.169 214.09 117.377 214.147 117.627C215.064 121.075 215.856 124.017 216.522 126.46C217.173 128.908 217.72 130.96 218.168 132.627C218.611 134.283 218.981 135.616 219.272 136.627C219.522 137.642 219.736 138.455 219.918 139.064C220.085 139.689 220.215 140.158 220.314 140.46C220.397 140.794 220.47 141.106 220.543 141.398C220.627 141.689 220.715 142.017 220.814 142.377C220.897 142.741 221.028 143.262 221.21 143.939C221.319 144.304 221.257 144.627 221.022 144.919C220.783 145.226 220.486 145.377 220.127 145.377H217.897ZM209.189 134.419C209.09 134.783 209.158 135.106 209.397 135.398C209.632 135.705 209.929 135.856 210.293 135.856H213.022C213.382 135.856 213.679 135.705 213.918 135.398C214.153 135.106 214.215 134.783 214.106 134.419C213.897 133.684 213.689 132.898 213.481 132.064C213.241 131.231 213.002 130.351 212.752 129.419C212.668 129.127 212.522 128.908 212.314 128.752C212.106 128.627 211.882 128.564 211.647 128.564C211.408 128.564 211.189 128.627 210.981 128.752C210.772 128.908 210.632 129.127 210.564 129.419C210.325 130.252 210.106 131.085 209.897 131.919C209.658 132.752 209.423 133.585 209.189 134.419Z" fill="#FB8A2C"/>
<path d="M232.177 116.773C234.437 116.773 236.14 117.387 237.281 118.606C238.432 119.83 239.01 121.559 239.01 123.794C239.01 124.059 238.927 124.268 238.76 124.419C238.578 124.601 238.364 124.689 238.114 124.689H235.489C235.224 124.689 235.015 124.601 234.864 124.419C234.682 124.268 234.593 124.059 234.593 123.794V123.523C234.593 122.538 234.396 121.825 234.01 121.377C233.62 120.96 233.052 120.752 232.302 120.752C231.536 120.752 230.958 120.96 230.573 121.377C230.156 121.825 229.948 122.538 229.948 123.523C229.948 124.054 230.015 124.533 230.156 124.96C230.281 125.434 230.495 125.908 230.802 126.377C231.12 126.851 231.536 127.346 232.052 127.856C232.552 128.398 233.177 128.981 233.927 129.606C234.896 130.413 235.718 131.169 236.385 131.877C237.036 132.601 237.557 133.304 237.948 133.981C238.333 134.689 238.62 135.393 238.802 136.085C238.968 136.794 239.052 137.554 239.052 138.356C239.052 140.622 238.474 142.351 237.323 143.544C236.156 144.768 234.427 145.377 232.135 145.377C229.843 145.377 228.114 144.768 226.948 143.544C225.781 142.351 225.198 140.622 225.198 138.356V137.502C225.198 137.268 225.286 137.059 225.468 136.877C225.62 136.71 225.812 136.627 226.052 136.627H228.698C228.932 136.627 229.14 136.71 229.323 136.877C229.5 137.059 229.593 137.268 229.593 137.502V138.627C229.593 139.617 229.802 140.314 230.218 140.731C230.635 141.148 231.224 141.356 231.989 141.356C232.739 141.356 233.333 141.148 233.781 140.731C234.198 140.314 234.406 139.617 234.406 138.627C234.406 138.127 234.333 137.648 234.198 137.189C234.073 136.721 233.849 136.247 233.531 135.773C233.224 135.314 232.823 134.809 232.323 134.252C231.807 133.742 231.177 133.169 230.427 132.544C229.453 131.742 228.646 130.981 228.01 130.273C227.354 129.58 226.833 128.877 226.448 128.169C226.031 127.46 225.739 126.762 225.573 126.064C225.39 125.356 225.302 124.601 225.302 123.794C225.302 121.559 225.875 119.83 227.031 118.606C228.166 117.387 229.885 116.773 232.177 116.773ZM230.114 115.21C229.765 115.21 229.5 115.08 229.323 114.814C229.114 114.564 229.062 114.294 229.177 114.002L230.489 109.044C230.625 108.559 230.937 108.314 231.427 108.314H234.052C234.411 108.314 234.698 108.471 234.906 108.773C235.083 109.096 235.083 109.408 234.906 109.71L232.531 114.669C232.375 115.033 232.078 115.21 231.635 115.21H230.114Z" fill="#FB8A2C"/>
<path d="M254.846 140.96C255.148 140.96 255.418 141.064 255.658 141.273C255.866 141.512 255.971 141.788 255.971 142.106V144.252C255.971 144.559 255.866 144.814 255.658 145.023C255.418 145.262 255.148 145.377 254.846 145.377H244.075C243.752 145.377 243.497 145.262 243.304 145.023C243.064 144.814 242.95 144.559 242.95 144.252V117.898C242.95 117.596 243.064 117.325 243.304 117.085C243.497 116.877 243.752 116.773 244.075 116.773H246.221C246.523 116.773 246.793 116.877 247.033 117.085C247.241 117.325 247.346 117.596 247.346 117.898V139.835C247.346 140.158 247.46 140.413 247.7 140.606C247.908 140.846 248.168 140.96 248.491 140.96H254.846Z" fill="#FB8A2C"/>
<path d="M273.924 120.044C273.924 120.366 273.82 120.627 273.612 120.835C273.372 121.075 273.101 121.189 272.799 121.189H265.424C265.101 121.189 264.841 121.294 264.632 121.502C264.393 121.741 264.278 122.012 264.278 122.314V124.648C264.278 124.971 264.393 125.231 264.632 125.439C264.841 125.679 265.101 125.794 265.424 125.794H270.299C270.632 125.794 270.914 125.898 271.153 126.106C271.362 126.346 271.466 126.616 271.466 126.919V129.023C271.466 129.346 271.362 129.622 271.153 129.856C270.914 130.08 270.632 130.189 270.299 130.189H265.424C265.101 130.189 264.841 130.294 264.632 130.502C264.393 130.741 264.278 131.017 264.278 131.335V139.835C264.278 140.158 264.393 140.413 264.632 140.606C264.841 140.846 265.101 140.96 265.424 140.96H272.799C273.101 140.96 273.372 141.064 273.612 141.273C273.82 141.512 273.924 141.788 273.924 142.106V144.252C273.924 144.559 273.82 144.814 273.612 145.023C273.372 145.262 273.101 145.377 272.799 145.377H261.007C260.685 145.377 260.429 145.262 260.237 145.023C259.997 144.814 259.882 144.559 259.882 144.252V117.898C259.882 117.596 259.997 117.325 260.237 117.085C260.429 116.877 260.685 116.773 261.007 116.773H272.799C273.101 116.773 273.372 116.877 273.612 117.085C273.82 117.325 273.924 117.596 273.924 117.898V120.044Z" fill="#FB8A2C"/>
<path d="M101.235 170.508H97.652V175.154H95.3604V163.779H101.652V165.696H97.652V168.612H101.235V170.508Z" fill="#6B3B1F"/>
<path d="M112.278 163.779V171.654C112.263 172.836 111.934 173.748 111.299 174.383C110.658 175.008 109.742 175.321 108.549 175.321C107.325 175.321 106.388 175.003 105.736 174.362C105.096 173.727 104.778 172.8 104.778 171.592V163.779H107.091V171.612C107.091 172.253 107.195 172.711 107.403 172.987C107.611 173.269 107.986 173.404 108.528 173.404C109.08 173.404 109.455 173.274 109.653 173.008C109.861 172.732 109.971 172.279 109.986 171.654V163.779H112.278Z" fill="#6B3B1F"/>
<path d="M123.892 175.154H121.58L118.226 167.696V175.154H115.934V163.779H118.226L121.601 171.237V163.779H123.892V175.154Z" fill="#6B3B1F"/>
<path d="M127.641 175.154V163.779H130.641C131.975 163.779 133.037 164.206 133.829 165.05C134.62 165.883 135.022 167.039 135.037 168.508V170.362C135.037 171.852 134.641 173.024 133.85 173.883C133.058 174.732 131.964 175.154 130.579 175.154H127.641ZM129.933 165.696V173.237H130.62C131.381 173.237 131.917 173.039 132.225 172.633C132.542 172.232 132.709 171.539 132.725 170.55V168.571C132.725 167.519 132.579 166.779 132.287 166.362C131.995 165.935 131.485 165.711 130.766 165.696H129.933Z" fill="#6B3B1F"/>
<path d="M144.029 172.821H140.883L140.279 175.154H137.841L141.404 163.779H143.508L147.091 175.154H144.633L144.029 172.821ZM141.383 170.904H143.508L142.446 166.862L141.383 170.904Z" fill="#6B3B1F"/>
<path d="M157.765 171.362C157.708 172.654 157.338 173.644 156.661 174.321C155.994 174.987 155.046 175.321 153.828 175.321C152.536 175.321 151.546 174.899 150.869 174.05C150.187 173.206 149.849 171.998 149.849 170.425V168.508C149.849 166.94 150.203 165.732 150.911 164.883C151.619 164.039 152.604 163.612 153.869 163.612C155.104 163.612 156.041 163.961 156.682 164.654C157.317 165.352 157.687 166.352 157.786 167.654H155.474C155.458 166.852 155.333 166.295 155.099 165.987C154.875 165.685 154.463 165.529 153.869 165.529C153.244 165.529 152.807 165.748 152.557 166.175C152.307 166.607 152.166 167.315 152.14 168.3V170.446C152.14 171.571 152.265 172.352 152.515 172.779C152.776 173.196 153.213 173.404 153.828 173.404C154.437 173.404 154.854 173.258 155.078 172.966C155.312 172.675 155.442 172.144 155.474 171.362H157.765Z" fill="#6B3B1F"/>
<path d="M164.843 163.779H167.135V171.654C167.135 172.753 166.822 173.644 166.197 174.321C165.582 174.987 164.801 175.321 163.843 175.321C162.801 175.321 161.989 175.008 161.405 174.383C160.822 173.758 160.53 172.899 160.53 171.8H162.843C162.843 172.873 163.176 173.404 163.843 173.404C164.51 173.404 164.843 172.789 164.843 171.55V163.779Z" fill="#6B3B1F"/>
<path d="M176.286 172.821H173.141L172.536 175.154H170.099L173.661 163.779H175.766L179.349 175.154H176.891L176.286 172.821ZM173.641 170.904H175.766L174.703 166.862L173.641 170.904Z" fill="#6B3B1F"/>
</svg>
