<svg xml:space="preserve" style="enable-background:new 0 0 500 150;" viewBox="0 0 500 150" y="0px" x="0px" xmlns:xlink="http://www.w3.org/1999/xlink" xmlns="http://www.w3.org/2000/svg" id="Capa_1" version="1.1">
<style type="text/css">
	.st0{fill:url(#SVGID_1_);}
	.st1{fill:url(#SVGID_2_);}
	.st2{fill:url(#SVGID_3_);}
	.st3{fill:url(#SVGID_4_);}
	.st4{fill:url(#SVGID_5_);}
	.st5{fill:url(#SVGID_6_);}
	.st6{fill:url(#SVGID_7_);}
	.st7{fill:url(#SVGID_8_);}
	.st8{fill:url(#SVGID_9_);}
	.st9{fill:url(#SVGID_10_);}
	.st10{fill:url(#SVGID_11_);}
	.st11{fill:url(#SVGID_12_);}
	.st12{fill:url(#SVGID_13_);}
	.st13{fill:url(#SVGID_14_);}
	.st14{fill:url(#SVGID_15_);}
	.st15{fill:url(#SVGID_16_);}
	.st16{fill:#2D5336;}
</style>
<g>
	<g>
		<g>
			<g>
				<g>
					<g>
						<g>
							<linearGradient y2="51.1391" x2="77.2255" y1="51.1391" x1="3.8384" gradientUnits="userSpaceOnUse" id="SVGID_1_">
								<stop style="stop-color:#335039" offset="0.5437"></stop>
								<stop style="stop-color:#5D8761" offset="0.645"></stop>
							</linearGradient>
							<path d="M44.71,16.14c-0.23-0.5-0.74-0.82-1.29-0.82H29.58c-0.48,0-0.93,0.24-1.19,0.65
								c-0.26,0.4-0.3,0.91-0.11,1.35l3.97,8.94L3.98,84.92c-0.21,0.44-0.18,0.96,0.08,1.37c0.26,0.41,0.72,0.67,1.2,0.67h13.69
								c0.52,0,1-0.29,1.25-0.75l2.11-3.92c0.01-0.01,0.01-0.02,0.02-0.03c0.03-0.07,0.25-0.45,1.11-1.11
								c0.74-0.57,1.79-1.12,3.13-1.65c1.4-0.56,3.16-1.02,5.22-1.39c2.09-0.37,4.52-0.56,7.24-0.56h17.54l3.83,8.57
								c0.23,0.51,0.74,0.84,1.3,0.84H75.8c0.49,0,0.94-0.25,1.2-0.66c0.26-0.41,0.29-0.93,0.09-1.37L44.71,16.14z M49.34,61.94
								h-6.86c-4.12,0-7.58,0.31-10.32,0.91l8.33-18.11L49.34,61.94z" class="st0"></path>
							<linearGradient y2="51.7007" x2="141.7628" y1="51.7007" x1="78.8755" gradientUnits="userSpaceOnUse" id="SVGID_2_">
								<stop style="stop-color:#335039" offset="0.5437"></stop>
								<stop style="stop-color:#5D8761" offset="0.645"></stop>
							</linearGradient>
							<path d="M140.3,71.22l-4.61,0.13c-0.77,0-1.4-0.07-1.87-0.2c-0.36-0.1-0.71-0.29-1.09-0.59
								c-0.51-0.39-1.07-0.98-1.69-1.73c-0.63-0.77-1.42-1.83-2.41-3.24l-3.34-6.88c3.63-1.42,6.64-3.52,8.96-6.26
								c3.1-3.67,4.67-8.37,4.67-13.97c0-3.44-0.59-6.57-1.75-9.32c-1.18-2.76-2.86-5.13-5-7.04c-2.12-1.88-4.63-3.32-7.47-4.28
								c-2.77-0.94-5.82-1.41-9.06-1.41H80.3c-0.79,0-1.42,0.64-1.42,1.42v67.67c0,0.79,0.64,1.42,1.42,1.42h12.61
								c0.79,0,1.42-0.64,1.42-1.42V61.67c1.13-0.46,2.27-0.78,3.4-0.95c1.88-0.29,3.79-0.44,5.69-0.44H109l7.01,14.75
								c1.38,2.9,3.02,5.2,4.86,6.83c1.83,1.63,3.81,2.85,5.88,3.61c2,0.73,4.1,1.17,6.24,1.3c1.88,0.12,3.82,0.18,5.74,0.18h1.61
								c0.79,0,1.42-0.64,1.42-1.42V72.65c0-0.38-0.16-0.75-0.43-1.02C141.06,71.36,140.68,71.21,140.3,71.22z M94.33,32.04h21.28
								c1.29,0,2.5,0.13,3.59,0.39c0.92,0.22,1.71,0.57,2.35,1.04c0.58,0.42,1.03,0.97,1.39,1.67c0.36,0.72,0.54,1.67,0.54,2.83
								c0,2.44-0.59,4.08-1.82,5.02c-1.46,1.11-3.49,1.68-6.06,1.68H103.4c-2.2,0-4.41,0.14-6.57,0.42
								c-0.83,0.11-1.67,0.28-2.5,0.52V32.04z" class="st1"></path>
							<linearGradient y2="51.1862" x2="218.2292" y1="51.1862" x1="140.5906" gradientUnits="userSpaceOnUse" id="SVGID_3_">
								<stop style="stop-color:#335039" offset="0.5437"></stop>
								<stop style="stop-color:#5D8761" offset="0.645"></stop>
							</linearGradient>
							<path d="M216.89,73.86l-2.6-0.16c-1.47-0.1-2.88-0.44-4.19-1.04c-0.35-0.16-0.68-0.31-1.01-0.47
								c1.73-2.42,3.16-5.06,4.27-7.86c1.6-4.02,2.41-8.38,2.41-12.94c0-5.23-1-10.16-2.96-14.68c-1.96-4.48-4.68-8.44-8.06-11.77
								c-3.39-3.34-7.41-5.99-11.93-7.88c-4.55-1.9-9.46-2.87-14.59-2.87c-4.95,0-9.76,0.91-14.3,2.72c-4.53,1.81-8.56,4.35-12,7.55
								c-3.46,3.23-6.24,7.09-8.27,11.5c-2.04,4.44-3.07,9.3-3.07,14.44c0,5.22,0.98,10.19,2.9,14.78
								c1.93,4.58,4.61,8.61,7.97,11.98c3.37,3.37,7.37,6.06,11.89,7.99c4.54,1.94,9.52,2.92,14.78,2.92
								c6.85,0,13.18-1.64,18.84-4.87c1.46,0.95,2.93,1.82,4.4,2.58c2.24,1.17,4.81,1.94,7.64,2.27l1.06,0.13
								c0.06,0.01,0.11,0.01,0.17,0.01c0.51,0,0.98-0.27,1.23-0.72l6.56-11.48c0.24-0.43,0.25-0.95,0.02-1.38
								C217.83,74.17,217.38,73.89,216.89,73.86z M185.09,56.86c-1.24-0.33-2.66-0.57-4.21-0.7l-1.03-0.09
								c-0.55-0.05-1.08,0.23-1.35,0.71l-6.57,11.41c-0.25,0.43-0.25,0.96-0.02,1.39c0.24,0.43,0.68,0.71,1.18,0.74l2.66,0.13
								c0.98,0.04,1.86,0.17,2.63,0.38c0.8,0.21,1.61,0.51,2.4,0.89c0.31,0.15,0.62,0.31,0.93,0.48c-1.17,0.18-2.34,0.27-3.5,0.27
								c-2.98,0-5.85-0.54-8.52-1.6c-2.69-1.07-5.11-2.56-7.17-4.43c-2.04-1.84-3.68-4.08-4.88-6.65c-1.18-2.53-1.77-5.33-1.77-8.32
								c0-3.2,0.57-6.14,1.68-8.75c1.12-2.63,2.69-4.94,4.65-6.86c1.97-1.92,4.33-3.42,7.01-4.47c2.74-1.07,5.72-1.61,8.87-1.61
								c3.04,0,5.94,0.53,8.61,1.56c2.66,1.04,5.04,2.52,7.07,4.4c2,1.86,3.62,4.12,4.8,6.71c1.16,2.54,1.74,5.38,1.74,8.45
								c0,2.85-0.52,5.54-1.56,8.01c-0.69,1.63-1.54,3.16-2.53,4.54c-1.17-0.87-2.12-1.57-2.93-2.16c-1.47-1.07-2.86-1.99-4.12-2.72
								C187.8,57.79,186.42,57.21,185.09,56.86z" class="st2"></path>
							<linearGradient y2="52.433" x2="283.1112" y1="52.433" x1="219.3627" gradientUnits="userSpaceOnUse" id="SVGID_4_">
								<stop style="stop-color:#335039" offset="0.5437"></stop>
								<stop style="stop-color:#5D8761" offset="0.645"></stop>
							</linearGradient>
							<path d="M281.69,16.45h-12.61c-0.79,0-1.42,0.64-1.42,1.42v40.94c0,4.68-1.31,8.09-3.99,10.4
								c-2.8,2.4-6.98,3.61-12.43,3.61c-4.99,0-9.87-1.42-12.42-3.61c-2.69-2.31-4-5.71-4-10.4V17.87c0-0.79-0.64-1.42-1.42-1.42
								h-12.61c-0.79,0-1.42,0.64-1.42,1.42v41c0,9.32,2.87,16.67,8.52,21.85c5.57,5.11,13.43,7.71,23.35,7.71
								c9.92,0,17.78-2.59,23.36-7.71c5.65-5.18,8.52-12.53,8.52-21.85v-41C283.11,17.08,282.47,16.45,281.69,16.45z" class="st3"></path>
							<linearGradient y2="51.7007" x2="302.4554" y1="51.7007" x1="287.1726" gradientUnits="userSpaceOnUse" id="SVGID_5_">
								<stop style="stop-color:#335039" offset="0.5437"></stop>
								<stop style="stop-color:#5D8761" offset="0.645"></stop>
							</linearGradient>
							<path d="M301.03,16.45h-12.44c-0.79,0-1.42,0.64-1.42,1.42v67.67c0,0.79,0.64,1.42,1.42,1.42h12.44
								c0.79,0,1.42-0.64,1.42-1.42V17.87C302.46,17.08,301.82,16.45,301.03,16.45z" class="st4"></path>
							<linearGradient y2="51.7007" x2="377.7114" y1="51.7007" x1="305.5539" gradientUnits="userSpaceOnUse" id="SVGID_6_">
								<stop style="stop-color:#335039" offset="0.5437"></stop>
								<stop style="stop-color:#5D8761" offset="0.645"></stop>
							</linearGradient>
							<path d="M376.29,16.45h-13.84c-0.58,0-1.1,0.35-1.32,0.88l-19.67,47.99l-19.52-47.98
								c-0.22-0.54-0.74-0.89-1.32-0.89h-13.66c-0.47,0-0.92,0.24-1.18,0.63c-0.26,0.39-0.31,0.89-0.13,1.33l27.81,67.67
								c0.22,0.53,0.74,0.88,1.32,0.88h13.25c0.57,0,1.09-0.34,1.31-0.87l28.26-67.66c0.18-0.44,0.14-0.94-0.13-1.34
								C377.21,16.68,376.76,16.45,376.29,16.45z" class="st5"></path>
							<linearGradient y2="51.7007" x2="435.7427" y1="51.7007" x1="380.7552" gradientUnits="userSpaceOnUse" id="SVGID_7_">
								<stop style="stop-color:#335039" offset="0.5437"></stop>
								<stop style="stop-color:#5D8761" offset="0.645"></stop>
							</linearGradient>
							<path d="M434.32,71.36l-38.11,0V60.02c1.12-0.45,2.26-0.77,3.4-0.94c1.86-0.29,3.77-0.44,5.67-0.44h15.62
								c0.79,0,1.42-0.64,1.42-1.42V44.46c0-0.79-0.64-1.42-1.42-1.42h-15.62c-2.24,0-4.45,0.14-6.57,0.41
								c-0.84,0.11-1.67,0.28-2.5,0.51V32.04l34.32,0c0.38,0,0.74-0.15,1.01-0.42c0.27-0.27,0.42-0.63,0.42-1.01V17.87
								c0-0.79-0.64-1.42-1.42-1.42l-48.36,0c-0.38,0-0.74,0.15-1.01,0.42c-0.27,0.27-0.42,0.63-0.42,1.01v67.67
								c0,0.79,0.64,1.42,1.42,1.42h52.14c0.38,0,0.74-0.15,1.01-0.42c0.27-0.27,0.42-0.63,0.42-1.01V72.78
								C435.74,71.99,435.11,71.36,434.32,71.36z" class="st6"></path>
							<linearGradient y2="51.7009" x2="496.1616" y1="51.7009" x1="435.5092" gradientUnits="userSpaceOnUse" id="SVGID_8_">
								<stop style="stop-color:#335039" offset="0.5437"></stop>
								<stop style="stop-color:#5D8761" offset="0.645"></stop>
							</linearGradient>
							<path d="M494.74,16.45h-57.81c-0.79,0-1.42,0.64-1.42,1.42v12.75c0,0.79,0.64,1.42,1.42,1.42h21.43v53.49
								c0,0.79,0.64,1.42,1.42,1.42h12.35c0.79,0,1.42-0.64,1.42-1.42V32.05h21.18c0.79,0,1.42-0.64,1.42-1.42V17.87
								C496.16,17.08,495.53,16.45,494.74,16.45z" class="st7"></path>
						</g>
					</g>
				</g>
			</g>
			<g>
				<g>
					<g>
						<g>
							
								<linearGradient gradientTransform="matrix(1 0 0 1 0 6)" y2="45.3056" x2="496.1616" y1="45.3056" x1="3.8384" gradientUnits="userSpaceOnUse" id="SVGID_9_">
								<stop style="stop-color:#335039" offset="0.5437"></stop>
								<stop style="stop-color:#5D8761" offset="0.645"></stop>
							</linearGradient>
							<path d="M44.71,16.14c-0.23-0.5-0.74-0.82-1.29-0.82H29.58c-0.48,0-0.93,0.24-1.19,0.65
								c-0.26,0.4-0.3,0.91-0.11,1.35l3.97,8.94L3.98,84.92c-0.21,0.44-0.18,0.96,0.08,1.37c0.26,0.41,0.72,0.67,1.2,0.67h13.69
								c0.52,0,1-0.29,1.25-0.75l2.11-3.92c0.01-0.01,0.01-0.02,0.02-0.03c0.03-0.07,0.25-0.45,1.11-1.11
								c0.74-0.57,1.79-1.12,3.13-1.65c1.4-0.56,3.16-1.02,5.22-1.39c2.09-0.37,4.52-0.56,7.24-0.56h17.54l3.83,8.57
								c0.23,0.51,0.74,0.84,1.3,0.84H75.8c0.49,0,0.94-0.25,1.2-0.66c0.26-0.41,0.29-0.93,0.09-1.37L44.71,16.14z M49.34,61.94
								h-6.86c-4.12,0-7.58,0.31-10.32,0.91l8.33-18.11L49.34,61.94z" class="st8"></path>
							
								<linearGradient gradientTransform="matrix(1 0 0 1 0 6)" y2="45.3056" x2="496.1616" y1="45.3056" x1="3.8384" gradientUnits="userSpaceOnUse" id="SVGID_10_">
								<stop style="stop-color:#335039" offset="0.5437"></stop>
								<stop style="stop-color:#5D8761" offset="0.645"></stop>
							</linearGradient>
							<path d="M140.3,71.22l-4.61,0.13c-0.77,0-1.4-0.07-1.87-0.2c-0.36-0.1-0.71-0.29-1.09-0.59
								c-0.51-0.39-1.07-0.98-1.69-1.73c-0.63-0.77-1.42-1.83-2.41-3.24l-3.34-6.88c3.63-1.42,6.64-3.52,8.96-6.26
								c3.1-3.67,4.67-8.37,4.67-13.97c0-3.44-0.59-6.57-1.75-9.32c-1.18-2.76-2.86-5.13-5-7.04c-2.12-1.88-4.63-3.32-7.47-4.28
								c-2.77-0.94-5.82-1.41-9.06-1.41H80.3c-0.79,0-1.42,0.64-1.42,1.42v67.67c0,0.79,0.64,1.42,1.42,1.42h12.61
								c0.79,0,1.42-0.64,1.42-1.42V61.67c1.13-0.46,2.27-0.78,3.4-0.95c1.88-0.29,3.79-0.44,5.69-0.44H109l7.01,14.75
								c1.38,2.9,3.02,5.2,4.86,6.83c1.83,1.63,3.81,2.85,5.88,3.61c2,0.73,4.1,1.17,6.24,1.3c1.88,0.12,3.82,0.18,5.74,0.18h1.61
								c0.79,0,1.42-0.64,1.42-1.42V72.65c0-0.38-0.16-0.75-0.43-1.02C141.06,71.36,140.68,71.21,140.3,71.22z M94.33,32.04h21.28
								c1.29,0,2.5,0.13,3.59,0.39c0.92,0.22,1.71,0.57,2.35,1.04c0.58,0.42,1.03,0.97,1.39,1.67c0.36,0.72,0.54,1.67,0.54,2.83
								c0,2.44-0.59,4.08-1.82,5.02c-1.46,1.11-3.49,1.68-6.06,1.68H103.4c-2.2,0-4.41,0.14-6.57,0.42
								c-0.83,0.11-1.67,0.28-2.5,0.52V32.04z" class="st9"></path>
							
								<linearGradient gradientTransform="matrix(1 0 0 1 0 6)" y2="45.3056" x2="496.1616" y1="45.3056" x1="3.8384" gradientUnits="userSpaceOnUse" id="SVGID_11_">
								<stop style="stop-color:#335039" offset="0.5437"></stop>
								<stop style="stop-color:#5D8761" offset="0.645"></stop>
							</linearGradient>
							<path d="M216.89,73.86l-2.6-0.16c-1.47-0.1-2.88-0.44-4.19-1.04c-0.35-0.16-0.68-0.31-1.01-0.47
								c1.73-2.42,3.16-5.06,4.27-7.86c1.6-4.02,2.41-8.38,2.41-12.94c0-5.23-1-10.16-2.96-14.68c-1.96-4.48-4.68-8.44-8.06-11.77
								c-3.39-3.34-7.41-5.99-11.93-7.88c-4.55-1.9-9.46-2.87-14.59-2.87c-4.95,0-9.76,0.91-14.3,2.72c-4.53,1.81-8.56,4.35-12,7.55
								c-3.46,3.23-6.24,7.09-8.27,11.5c-2.04,4.44-3.07,9.3-3.07,14.44c0,5.22,0.98,10.19,2.9,14.78
								c1.93,4.58,4.61,8.61,7.97,11.98c3.37,3.37,7.37,6.06,11.89,7.99c4.54,1.94,9.52,2.92,14.78,2.92
								c6.85,0,13.18-1.64,18.84-4.87c1.46,0.95,2.93,1.82,4.4,2.58c2.24,1.17,4.81,1.94,7.64,2.27l1.06,0.13
								c0.06,0.01,0.11,0.01,0.17,0.01c0.51,0,0.98-0.27,1.23-0.72l6.56-11.48c0.24-0.43,0.25-0.95,0.02-1.38
								C217.83,74.17,217.38,73.89,216.89,73.86z M185.09,56.86c-1.24-0.33-2.66-0.57-4.21-0.7l-1.03-0.09
								c-0.55-0.05-1.08,0.23-1.35,0.71l-6.57,11.41c-0.25,0.43-0.25,0.96-0.02,1.39c0.24,0.43,0.68,0.71,1.18,0.74l2.66,0.13
								c0.98,0.04,1.86,0.17,2.63,0.38c0.8,0.21,1.61,0.51,2.4,0.89c0.31,0.15,0.62,0.31,0.93,0.48c-1.17,0.18-2.34,0.27-3.5,0.27
								c-2.98,0-5.85-0.54-8.52-1.6c-2.69-1.07-5.11-2.56-7.17-4.43c-2.04-1.84-3.68-4.08-4.88-6.65c-1.18-2.53-1.77-5.33-1.77-8.32
								c0-3.2,0.57-6.14,1.68-8.75c1.12-2.63,2.69-4.94,4.65-6.86c1.97-1.92,4.33-3.42,7.01-4.47c2.74-1.07,5.72-1.61,8.87-1.61
								c3.04,0,5.94,0.53,8.61,1.56c2.66,1.04,5.04,2.52,7.07,4.4c2,1.86,3.62,4.12,4.8,6.71c1.16,2.54,1.74,5.38,1.74,8.45
								c0,2.85-0.52,5.54-1.56,8.01c-0.69,1.63-1.54,3.16-2.53,4.54c-1.17-0.87-2.12-1.57-2.93-2.16c-1.47-1.07-2.86-1.99-4.12-2.72
								C187.8,57.79,186.42,57.21,185.09,56.86z" class="st10"></path>
							
								<linearGradient gradientTransform="matrix(1 0 0 1 0 6)" y2="45.3056" x2="496.1616" y1="45.3056" x1="3.8384" gradientUnits="userSpaceOnUse" id="SVGID_12_">
								<stop style="stop-color:#335039" offset="0.5437"></stop>
								<stop style="stop-color:#5D8761" offset="0.645"></stop>
							</linearGradient>
							<path d="M281.69,16.45h-12.61c-0.79,0-1.42,0.64-1.42,1.42v40.94c0,4.68-1.31,8.09-3.99,10.4
								c-2.8,2.4-6.98,3.61-12.43,3.61c-4.99,0-9.87-1.42-12.42-3.61c-2.69-2.31-4-5.71-4-10.4V17.87c0-0.79-0.64-1.42-1.42-1.42
								h-12.61c-0.79,0-1.42,0.64-1.42,1.42v41c0,9.32,2.87,16.67,8.52,21.85c5.57,5.11,13.43,7.71,23.35,7.71
								c9.92,0,17.78-2.59,23.36-7.71c5.65-5.18,8.52-12.53,8.52-21.85v-41C283.11,17.08,282.47,16.45,281.69,16.45z" class="st11"></path>
							
								<linearGradient gradientTransform="matrix(1 0 0 1 0 6)" y2="45.3056" x2="496.1616" y1="45.3056" x1="3.8384" gradientUnits="userSpaceOnUse" id="SVGID_13_">
								<stop style="stop-color:#335039" offset="0.5437"></stop>
								<stop style="stop-color:#5D8761" offset="0.645"></stop>
							</linearGradient>
							<path d="M301.03,16.45h-12.44c-0.79,0-1.42,0.64-1.42,1.42v67.67c0,0.79,0.64,1.42,1.42,1.42h12.44
								c0.79,0,1.42-0.64,1.42-1.42V17.87C302.46,17.08,301.82,16.45,301.03,16.45z" class="st12"></path>
							
								<linearGradient gradientTransform="matrix(1 0 0 1 0 6)" y2="45.3056" x2="496.1616" y1="45.3056" x1="3.8384" gradientUnits="userSpaceOnUse" id="SVGID_14_">
								<stop style="stop-color:#335039" offset="0.5437"></stop>
								<stop style="stop-color:#5D8761" offset="0.645"></stop>
							</linearGradient>
							<path d="M376.29,16.45h-13.84c-0.58,0-1.1,0.35-1.32,0.88l-19.67,47.99l-19.52-47.98
								c-0.22-0.54-0.74-0.89-1.32-0.89h-13.66c-0.47,0-0.92,0.24-1.18,0.63c-0.26,0.39-0.31,0.89-0.13,1.33l27.81,67.67
								c0.22,0.53,0.74,0.88,1.32,0.88h13.25c0.57,0,1.09-0.34,1.31-0.87l28.26-67.66c0.18-0.44,0.14-0.94-0.13-1.34
								C377.21,16.68,376.76,16.45,376.29,16.45z" class="st13"></path>
							
								<linearGradient gradientTransform="matrix(1 0 0 1 0 6)" y2="45.3056" x2="496.1616" y1="45.3056" x1="3.8384" gradientUnits="userSpaceOnUse" id="SVGID_15_">
								<stop style="stop-color:#335039" offset="0.5437"></stop>
								<stop style="stop-color:#5D8761" offset="0.645"></stop>
							</linearGradient>
							<path d="M434.32,71.36l-38.11,0V60.02c1.12-0.45,2.26-0.77,3.4-0.94c1.86-0.29,3.77-0.44,5.67-0.44h15.62
								c0.79,0,1.42-0.64,1.42-1.42V44.46c0-0.79-0.64-1.42-1.42-1.42h-15.62c-2.24,0-4.45,0.14-6.57,0.41
								c-0.84,0.11-1.67,0.28-2.5,0.51V32.04l34.32,0c0.38,0,0.74-0.15,1.01-0.42c0.27-0.27,0.42-0.63,0.42-1.01V17.87
								c0-0.79-0.64-1.42-1.42-1.42l-48.36,0c-0.38,0-0.74,0.15-1.01,0.42c-0.27,0.27-0.42,0.63-0.42,1.01v67.67
								c0,0.79,0.64,1.42,1.42,1.42h52.14c0.38,0,0.74-0.15,1.01-0.42c0.27-0.27,0.42-0.63,0.42-1.01V72.78
								C435.74,71.99,435.11,71.36,434.32,71.36z" class="st14"></path>
							
								<linearGradient gradientTransform="matrix(1 0 0 1 0 6)" y2="45.3056" x2="496.1616" y1="45.3056" x1="3.8384" gradientUnits="userSpaceOnUse" id="SVGID_16_">
								<stop style="stop-color:#335039" offset="0.5437"></stop>
								<stop style="stop-color:#5D8761" offset="0.645"></stop>
							</linearGradient>
							<path d="M494.74,16.45h-57.81c-0.79,0-1.42,0.64-1.42,1.42v12.75c0,0.79,0.64,1.42,1.42,1.42h21.43v53.49
								c0,0.79,0.64,1.42,1.42,1.42h12.35c0.79,0,1.42-0.64,1.42-1.42V32.05h21.18c0.79,0,1.42-0.64,1.42-1.42V17.87
								C496.16,17.08,495.53,16.45,494.74,16.45z" class="st15"></path>
						</g>
					</g>
				</g>
			</g>
		</g>
	</g>
	<g>
		<path d="M141.08,104.37c0,0-0.01,0-0.01,0c-0.87,0-1.58,0.7-1.59,1.57c-0.1,12.84-0.83,20.55-1.4,24.69
			c-9.77-16.73-13.58-28.89-13.62-29.02c-0.22-0.71-0.9-1.16-1.63-1.12c-0.74,0.05-1.34,0.61-1.46,1.33
			c-2.78,17.47-0.37,34.2-0.27,34.9c0.12,0.79,0.79,1.36,1.57,1.36c0.08,0,0.16-0.01,0.23-0.02c0.87-0.13,1.47-0.93,1.34-1.8
			c-0.02-0.15-1.86-12.94-0.54-27.49c2.37,5.91,6.74,15.57,13.82,27.12c0.33,0.54,0.95,0.83,1.57,0.74
			c0.62-0.08,1.14-0.53,1.31-1.13c0.08-0.29,2.07-7.44,2.24-29.55C142.66,105.1,141.96,104.38,141.08,104.37z" class="st16"></path>
		<path d="M178.82,104.79c0.98,0,1.77-0.7,1.77-1.56c0-0.88-0.81-1.56-1.85-1.56l-8.3,0.28
			c0.34-1.74,0.75-3.61,1.26-5.85c0.13-0.42,0.05-0.87-0.22-1.23c-0.32-0.43-0.87-0.69-1.46-0.69c-0.81,0-1.48,0.46-1.76,1.23
			c-0.52,2.14-0.98,4.35-1.39,6.58l-10.71,0.29c-0.94,0-1.71,0.66-1.71,1.46v0.1c0,0.86,0.8,1.56,1.78,1.56l10.09-0.24
			c-0.78,5.28-1.17,10.66-1.18,16.42c-2.01,3.13-5.32,6.61-6.78,6.61c-0.4,0-0.49-0.69-0.49-1.27c0-0.77,0.1-1.55,0.3-2.39
			c0.15-0.9,0.39-2.05,0.82-2.96c0.21-0.48,0.17-1-0.11-1.42c-0.2-0.31-0.52-0.54-0.89-0.66c0.8-0.15,1.41-0.78,1.41-1.53
			c0-0.86-0.79-1.56-1.77-1.56c-7.85,0-13.07,6.67-13.07,11.08c0,1.53,0.62,2.72,1.74,3.36c0.62,0.36,1.29,0.53,2.11,0.53
			c2.34,0,4.57-1.92,5.82-3.24c0.16,0.85,0.51,1.58,1.04,2.13c0.69,0.73,1.63,1.11,2.73,1.11c2.2,0,4.69-1.47,7.23-4.27
			c0.04,1.07,0.09,2.08,0.15,3.03c0.01,0.85,0.8,1.5,1.83,1.5c0.46,0,0.88-0.17,1.21-0.47c0.33-0.31,0.5-0.72,0.5-1.18
			c-0.16-2.44-0.24-5.05-0.24-7.96c0-6.06,0.41-11.6,1.26-16.93L178.82,104.79z M155.74,120.26c-1.54,2.55-3.85,6.11-6.18,7.52
			c-0.41,0.26-0.82,0.42-1.11,0.42c-0.15,0-0.43,0-0.43-0.72c0-2.17,2.96-7.28,8.47-7.89C156.2,119.74,155.94,119.97,155.74,120.26z" class="st16"></path>
		<path d="M207.59,117.97c0.13-0.39,0.08-0.8-0.14-1.15c-0.25-0.41-0.69-0.69-1.21-0.77
			c-0.45-0.07-0.79-0.11-1.07-0.11c-3.56,0-6.79,3.11-8.11,4.57c0.06-0.84,0.11-1.84,0.11-2.85c0-0.86-0.79-1.56-1.77-1.56
			c-0.98,0-1.77,0.7-1.77,1.55c-0.02,1.46-0.14,2.95-0.25,4.23l-0.02,0.03c-3.13,4.58-5.13,5.35-5.74,5.12
			c-0.13-0.05-0.76-0.47-0.76-3.44c0-1.52,0.16-3.14,0.25-4.11l0.06-0.65c0-0.87-0.81-1.61-1.77-1.61c-0.78,0-1.47,0.45-1.75,1.15
			c-1.77,5.88-4.91,10.44-6.43,10.44c-0.53,0-0.87-0.97-0.91-2.59c0-2.09,0.47-4.71,0.9-6.46c0.19-0.85-0.42-1.65-1.43-1.88
			c-0.93-0.14-1.8,0.37-2.08,1.23c-0.62,2.63-0.93,4.91-0.93,6.76c0,4.97,2.36,6.02,4.34,6.02c2.39,0,4.61-1.66,6.6-4.94
			c0.66,2.06,2.14,3.27,4.02,3.27c1.6,0,3.39-0.87,5.19-2.52c-0.04,0.66-0.06,1.2-0.06,1.71c0,0.82,0.76,1.49,1.77,1.56
			c0.46,0,0.9-0.15,1.23-0.43c0.34-0.28,0.54-0.67,0.54-1.04c0.23-3.36,2.9-6.91,5.28-8.77c1.52-1.19,2.95-1.78,3.91-1.61
			C206.5,119.27,207.42,118.74,207.59,117.97z" class="st16"></path>
		<path d="M240.76,120.78l-0.03-0.01c-0.2-0.06-0.43-0.12-0.68-0.12c-0.62,0-1.22,0.31-1.56,0.8
			c-2.11,3.21-5.53,6.79-7.05,6.79c-0.09,0-0.2-0.03-0.26-0.05c-0.57-0.25-1.75-0.78-1.75-5.17c0-4.14,1.15-11.01,3.41-20.44
			c0.19-0.85-0.42-1.65-1.43-1.88c-0.95-0.14-1.84,0.4-2.02,1.23l-0.09,0.36c-1.35,5.64-3.19,13.35-3.38,19.34
			c-2,3.11-5.3,6.56-6.75,6.56c-0.4,0-0.49-0.69-0.49-1.27c0-0.77,0.1-1.55,0.3-2.39c0.15-0.9,0.39-2.05,0.82-2.96
			c0.21-0.48,0.17-1-0.11-1.42c-0.2-0.31-0.52-0.54-0.89-0.66c0.8-0.15,1.41-0.78,1.41-1.53c0-0.86-0.79-1.56-1.77-1.56
			c-7.85,0-13.07,6.67-13.07,11.08c0,1.53,0.62,2.72,1.74,3.36c0.62,0.36,1.29,0.53,2.11,0.53c2.25,0,4.37-1.7,5.82-3.24
			c0.16,0.85,0.51,1.58,1.04,2.13c0.69,0.73,1.63,1.11,2.72,1.11c2.29,0,4.89-1.58,7.52-4.58c0.75,3.04,2.45,4.58,5.06,4.58
			c4.33,0,8.86-6.37,10.14-8.31c0.24-0.3,0.24-0.66,0.24-0.85C241.75,121.59,241.39,121.07,240.76,120.78z M216.55,120.26
			c-1.54,2.55-3.85,6.11-6.18,7.52c-0.41,0.26-0.82,0.42-1.11,0.42c-0.15,0-0.43,0-0.43-0.72c0-2.17,2.96-7.28,8.47-7.89
			C217.01,119.74,216.75,119.97,216.55,120.26z" class="st16"></path>
		<path d="M261.71,124.64v-1.97c10.52-4.56,16.79-10.1,16.79-14.84c0-4.46-5.24-7.23-13.68-7.23
			c-0.45,0-0.92,0-1.41,0.02c0-0.05,0-0.09,0-0.12c0.08-0.41-0.02-0.82-0.29-1.15c-0.32-0.39-0.84-0.62-1.41-0.62
			c-0.9,0-1.67,0.61-1.77,1.38l-0.12,0.8c-1.64,0.2-3.34,0.53-5.06,0.97c-0.73,0.15-1.29,0.83-1.29,1.55c0,0.08,0,0.31,0.1,0.46
			c0.25,0.63,0.93,1.05,1.67,1.05c0.16,0,0.36,0,0.5-0.07c1.33-0.32,2.53-0.57,3.63-0.74c-0.66,5.46-1.06,11.03-1.19,16.55
			c-1.96,0.8-4.05,1.57-6.21,2.28c-0.7,0.22-1.18,0.83-1.18,1.49c0,0.14,0,0.41,0.14,0.64c0.35,0.58,0.96,0.92,1.63,0.92
			c0.44,0,2.06-0.55,5.56-1.88c0.02,4.71,0.17,8.71,0.49,12.58c0.1,0.82,0.85,1.4,1.83,1.4c0.91,0,1.71-0.71,1.71-1.51l0-0.14
			C261.85,132.74,261.71,128.88,261.71,124.64z M261.74,119.12c0.2-5.3,0.62-10.47,1.25-15.37c0.67-0.04,1.37-0.07,2.02-0.07
			c6.14,0,9.95,1.65,9.95,4.31C274.96,111.18,270.02,115.33,261.74,119.12z" class="st16"></path>
		<path d="M304.66,101.66l-8.76,0.28c0.34-1.73,0.74-3.59,1.26-5.85c0.13-0.42,0.05-0.87-0.22-1.23
			c-0.32-0.43-0.87-0.69-1.46-0.69c-0.81,0-1.48,0.46-1.76,1.23c-0.52,2.16-0.99,4.37-1.39,6.58l-10.71,0.29
			c-0.94,0-1.71,0.66-1.71,1.46v0.1c0,0.86,0.8,1.56,1.78,1.56l10.09-0.24c-0.78,5.3-1.17,10.69-1.18,16.47
			c-1.89,2.58-4.12,4.54-6.46,5.65c-1.31,0.59-3.03,0.96-4.47,0.96c-1.37,0-3.66-0.32-3.66-2.44c0-0.1,0.02-0.22,0.03-0.33
			c2.55,0.07,5.6-1.09,7.43-2.84c1.03-0.98,1.57-2.06,1.57-3.11c0-1.81-1.65-3.18-3.85-3.18c-1.05,0-2.7,0.31-4.56,1.79
			c-2.46,1.99-4.11,5.07-4.11,7.67c0,1.67,0.72,5.56,7.39,5.56c2.67,0,6.68-0.83,10.76-4.72c0.04,1.22,0.1,2.36,0.17,3.48
			c0.01,0.85,0.8,1.5,1.83,1.5c0.46,0,0.88-0.17,1.2-0.47c0.33-0.31,0.5-0.72,0.5-1.18c-0.16-2.44-0.24-5.05-0.24-7.96
			c0-6.06,0.41-11.6,1.26-16.93l9.34-0.29c0.98,0,1.77-0.7,1.77-1.56C306.5,102.35,305.69,101.66,304.66,101.66z M277.5,122.1
			c1.46-2.07,3.08-2.63,3.75-2.63c0.1,0,0.17,0.01,0.21,0.02C281.53,119.8,280.54,122.24,277.5,122.1z" class="st16"></path>
		<path d="M323.91,117.51L323.91,117.51c-1.23,0.06-2.38,0.09-3.41,0.1c0.14-1.64,0.34-3.65,0.58-6.16l0.02-0.19
			c0.17-1.75,0.37-3.75,0.59-6.05c4.75-0.38,9.59-0.68,14.38-0.87c0.93-0.08,1.66-0.74,1.66-1.51v-0.1c0-0.81-0.8-1.51-1.71-1.51
			l-0.14,0c-4.67,0.2-9.35,0.49-13.92,0.86c-0.13-0.83-0.88-1.42-1.88-1.42c-0.7,0-1.55,0.3-1.69,1.71c-0.8,0.07-1.6,0.15-2.39,0.23
			c-0.84,0.08-1.67,0.17-2.5,0.24c-0.9,0.07-1.6,0.76-1.6,1.56l0,0.16c0.09,0.81,0.84,1.4,1.82,1.4c0,0,0,0,0,0l4.35-0.4
			c-0.28,3.18-0.53,5.78-0.73,7.93l-0.01,0.11c-0.15,1.57-0.28,2.91-0.38,4.06c-0.91,0.01-1.89,0.04-2.98,0.1
			c-0.47,0-0.91,0.18-1.23,0.5c-0.31,0.31-0.48,0.72-0.47,1.17c0.09,0.84,0.87,1.45,1.86,1.45c0,0,0,0,0,0
			c0.63-0.03,1.56-0.08,2.54-0.1c-0.32,3.71-0.34,5.29-0.4,9.84l0,0.31c-0.02,1.49-0.05,3.3-0.09,5.6c0,0.86,0.79,1.56,1.77,1.56
			c0.99,0,1.77-0.66,1.77-1.5c0.05-2.46,0.07-4.36,0.09-5.94c0.06-4.55,0.09-6.12,0.41-9.93c1.51-0.01,2.91-0.06,3.83-0.1
			c0.91,0,1.71-0.71,1.71-1.51v-0.1C325.76,118.19,324.93,117.51,323.91,117.51z" class="st16"></path>
		<path d="M377.35,116.59v-2.96c0.89-3.08,2.08-7.45,2.08-9.9c0-0.9-0.08-1.82-0.68-2.38
			c-0.41-0.48-1.05-0.75-1.76-0.75c-0.54,0-1.09,0.22-1.41,0.55c-1.3,1.22-1.62,6.58-1.75,11.66l0,0.36
			c-1.35,4.69-3.43,10-8.65,13.86c-1.11,0.83-2.07,1.26-2.84,1.26c-1.22,0-1.4-1.18-1.4-1.88c0-1.51,0.82-3.24,2.13-4.52
			c1.2-1.17,3.38-2.54,6.92-2.47c0.51,0.03,0.99-0.13,1.34-0.45c0.3-0.28,0.48-0.66,0.47-1c0.04-0.36-0.07-0.72-0.32-1.02
			c-0.32-0.38-0.8-0.61-1.38-0.66c-3.84-0.1-7.25,1.15-9.65,3.48c-0.29,0.28-0.58,0.6-0.89,1c-1.93,0.4-3.77,0.45-5.35,0.15
			c-0.67-1.85-2.6-4.6-5.15-4.39c-0.23-0.09-0.49-0.14-0.77-0.14c-0.23,0-0.69,0.04-1.11,0.3c-1.56,1.12-2.79,2.54-3.56,4.12
			c-1.84,0.35-3.6,0.39-5.1,0.11c-0.67-1.85-2.62-4.6-5.15-4.39c-0.23-0.09-0.49-0.14-0.77-0.14c-0.23,0-0.69,0.04-1.11,0.3
			c-1.91,1.37-3.29,3.14-3.98,5.12c-0.43,1.17-0.64,2.3-0.64,3.38c0,3.52,2.36,6.17,5.5,6.17c1.88,0,3.74-1.08,5.1-2.98
			c0.89-1.32,1.41-2.77,1.53-4.19c1.11,0.11,2.3,0.1,3.64-0.05c-0.05,0.39-0.07,0.73-0.07,1.05c0,3.52,2.36,6.17,5.5,6.17
			c1.88,0,3.74-1.08,5.1-2.98c0.89-1.32,1.41-2.77,1.53-4.19c0.94,0.1,1.94,0.1,3.05,0.01c-0.22,0.76-0.34,1.5-0.34,2.21
			c0,3.01,1.97,4.95,5.01,4.95c4.69,0,9.26-5.51,11.47-9.14c0.16,5.5,0.54,10.62,1.05,14.47c0.09,0.84,0.8,1.4,1.77,1.4l0.16,0
			c0.9-0.07,1.6-0.76,1.6-1.57l0-0.17C377.75,131.22,377.35,124.02,377.35,116.59z M351.16,123.58c0,1.04-0.38,2.14-1.06,3.12
			c-0.77,1.06-1.48,1.59-2.12,1.59c-1.04,0-1.83-1.42-1.83-3.3c0-1.48,0.53-2.97,1.51-4.22c0.75,1.05,1.99,1.96,3.48,2.54
			C351.14,123.4,351.16,123.48,351.16,123.58z M335.47,123.58c0,1.04-0.38,2.15-1.06,3.12c-0.77,1.06-1.48,1.59-2.12,1.59
			c-1.03,0-1.83-1.45-1.83-3.3c0-1.48,0.53-2.97,1.51-4.22c0.75,1.05,1.99,1.96,3.48,2.54C335.45,123.4,335.47,123.48,335.47,123.58
			z" class="st16"></path>
	</g>
</g>
</svg>
